<svg height='300px' width='300px'  fill="#000000" xmlns="http://www.w3.org/2000/svg" xmlns:xlink="http://www.w3.org/1999/xlink" version="1.1" x="0px" y="0px" viewBox="0 0 68 68" enable-background="new 0 0 68 68" xml:space="preserve"><g><path d="M6,42.988c20.9048,0,35.072,0,56,0c2.7568,0,5-2.2432,5-5V15.1799c0-2.7568-2.2432-5-5-5H6c-2.7568,0-5,2.2432-5,5V37.988   C1,40.7449,3.2432,42.988,6,42.988z M56.3003,40.988H11.6997v-4c0-1.103,0.897-2,2-2h40.6006c1.103,0,2,0.897,2,2V40.988z    M3,15.1799c0-1.6543,1.3457-3,3-3h56c1.6543,0,3,1.3457,3,3v2.3218H3V15.1799z M3,19.5017h62V37.988c0,1.6543-1.3457,3-3,3   h-3.6997v-4c0-2.2056-1.7944-4-4-4H13.6997c-2.2056,0-4,1.7944-4,4v4H6c-1.6543,0-3-1.3457-3-3V19.5017z"></path><path d="M12.0317,55.9163c0-1.499,1.2192-2.7183,2.7183-2.7183c2.6021,0,4.7188-2.1167,4.7188-4.7188V45.988h-2v2.4912   c0,1.499-1.2197,2.7188-2.7188,2.7188c-2.6016,0-4.7183,2.1167-4.7183,4.7183v1.9038h2V55.9163z"></path><path d="M24.9414,53.198c2.6016,0,4.7183-2.1167,4.7183-4.7188V45.988h-2v2.4912c0,1.499-1.2192,2.7188-2.7183,2.7188   c-2.6021,0-4.7188,2.1167-4.7188,4.7183v1.9038h2v-1.9038C22.2227,54.4172,23.4424,53.198,24.9414,53.198z"></path><path d="M48.5313,45.988v2.4912c0,2.6021,2.1167,4.7188,4.7188,4.7188c1.499,0,2.7183,1.2192,2.7183,2.7183v1.9038h2v-1.9038   c0-2.6016-2.1167-4.7183-4.7183-4.7183c-1.499,0-2.7188-1.2197-2.7188-2.7188V45.988H48.5313z"></path><path d="M38.3403,45.988v2.4912c0,2.6021,2.1167,4.7188,4.7183,4.7188c1.499,0,2.7188,1.2192,2.7188,2.7183v1.9038h2v-1.9038   c0-2.6016-2.1167-4.7183-4.7188-4.7183c-1.499,0-2.7183-1.2197-2.7183-2.7188V45.988H38.3403z"></path><rect x="7.9971" y="22.0769" width="3" height="2"></rect><rect x="14.9971" y="22.0769" width="3" height="2"></rect><rect x="21.9971" y="22.0769" width="3" height="2"></rect><path d="M61.667,35.9778c0.4141,0,0.75-0.3359,0.75-0.75v-3.7305c0-0.4141-0.3359-0.75-0.75-0.75s-0.75,0.3359-0.75,0.75v3.7305   C60.917,35.6418,61.2529,35.9778,61.667,35.9778z"></path><path d="M61.667,28.3396c0.4141,0,0.75-0.3359,0.75-0.75v-3c0-0.4141-0.3359-0.75-0.75-0.75s-0.75,0.3359-0.75,0.75v3   C60.917,28.0037,61.2529,28.3396,61.667,28.3396z"></path></g></svg>