<svg height='300px' width='300px'  fill="#000000" xmlns="http://www.w3.org/2000/svg" xmlns:xlink="http://www.w3.org/1999/xlink" version="1.1" x="0px" y="0px" viewBox="0 0 1000 1000" enable-background="new 0 0 1000 1000" xml:space="preserve"><path d="M820.7,364.5c-17.5-41.5-42.6-78.7-74.6-110.6c-32-32-69.2-57.1-110.6-74.6c-42.9-18.2-88.5-27.4-135.5-27.4  s-92.6,9.2-135.5,27.4c-41.5,17.5-78.7,42.6-110.6,74.6c-32,32-57.1,69.2-74.6,110.6c-18.2,42.9-27.4,88.5-27.4,135.5  s9.2,92.6,27.4,135.5c17.5,41.5,42.6,78.7,74.6,110.6c32,32,69.2,57.1,110.6,74.6c42.9,18.2,88.5,27.4,135.5,27.4  s92.6-9.2,135.5-27.4c41.5-17.5,78.7-42.6,110.6-74.6c32-32,57.1-69.2,74.6-110.6c18.2-42.9,27.4-88.5,27.4-135.5  S838.9,407.4,820.7,364.5z M171.9,500c0-87.6,34.1-170,96.1-232c62-62,144.4-96.1,232-96.1c84.9,0,164.9,32.1,226.2,90.4  L576.1,412.5v-41.4v-0.8v-77.8v-0.8v-78.6c0-5.7-4.6-10.3-10.3-10.3c-5.7,0-10.3,4.6-10.3,10.3v78.6v0.8c0,27-19.6,49.5-45.3,54  v-36.6c0-5.7-4.6-10.3-10.3-10.3c-5.7,0-10.3,4.6-10.3,10.3v36.6c-25.7-4.6-45.3-27-45.3-54v-0.8v-78.6c0-5.7-4.6-10.3-10.3-10.3  c-5.7,0-10.3,4.6-10.3,10.3v78.6v0.8v77.8v0.8v77.8v0.8v77.8v0.8v36.2L262.3,726.2C204,664.9,171.9,584.9,171.9,500z M510.3,582.4  v-57.9c17.7-2.3,33.6-10.7,45.3-23.1v26.2v0.8C555.5,555.3,536,577.8,510.3,582.4z M555.5,580v27c0,27-19.6,49.5-45.3,54v-57.9  C528,600.9,543.8,592.4,555.5,580z M510.3,503.7v-57.9c17.7-2.3,33.6-10.7,45.3-23.1v26.2v0.8C555.5,476.7,536,499.2,510.3,503.7z   M510.3,425.1v-57.9c17.7-2.3,33.6-10.7,45.3-23.1v26.2v0.8C555.5,398,536,420.5,510.3,425.1z M444.5,528.4v-0.8v-26.2  c11.7,12.4,27.5,20.9,45.3,23.1v57.9C464,577.8,444.5,555.3,444.5,528.4z M489.7,603.1V661c-25.7-4.6-45.3-27-45.3-54v-27  C456.2,592.4,472,600.9,489.7,603.1z M444.5,449.7v-0.8v-26.2c11.7,12.4,27.5,20.9,45.3,23.1v57.9  C464,499.2,444.5,476.7,444.5,449.7z M444.5,371.1v-0.8v-26.2c11.7,12.4,27.5,20.9,45.3,23.1v57.9C464,420.5,444.5,398,444.5,371.1z   M732,732c-62,62-144.4,96.1-232,96.1c-82.7,0-160.6-30.4-221.2-85.8l145.2-145.2v9.9c0,38.3,28.7,70,65.8,74.8v105.3  c0,5.7,4.6,10.3,10.3,10.3c5.7,0,10.3-4.6,10.3-10.3V681.8c37.1-4.7,65.8-36.5,65.8-74.8v-78.6v-0.8v-77.8v-0.8V445l166.2-166.2  c55.4,60.6,85.8,138.6,85.8,221.2C828.1,587.6,794,670,732,732z"></path></svg>