<svg height='300px' width='300px'  fill="#000000" xmlns="http://www.w3.org/2000/svg" data-name="Layer 1" viewBox="-16 -16 160 160" x="0px" y="0px"><title>97 Miscellaneous 22 final</title><path d="M8.09,108.32A18.42,18.42,0,0,0,26.6,124.5h74.8a18.42,18.42,0,0,0,18.51-16.18A10,10,0,0,0,128,98.5a2,2,0,0,0-2-2H2a2,2,0,0,0-2,2A10,10,0,0,0,8.09,108.32Zm64.58,8.18H27a2,2,0,0,1,0-4H72.67a2,2,0,0,1,0,4Zm28.33,0H83.5a2,2,0,0,1,0-4H101a2,2,0,0,1,0,4Zm-46.5-12H111a2,2,0,0,1,0,4H54.5a2,2,0,0,1,0-4Zm-37.5,0H43.67a2,2,0,1,1,0,4H17a2,2,0,0,1,0-4Z"></path><path d="M49.48,82.77c-1.26,3.15-4.53,2.31-5.17,2.1a2,2,0,0,0-1.24,3.8,8,8,0,0,0,10.12-4.42,2,2,0,1,0-3.71-1.49Z"></path><path d="M81.35,75.84a2,2,0,0,0-3.79-1.29c-1.1,3.21-4.4,2.54-5.05,2.37a2,2,0,0,0-1,3.86A8,8,0,0,0,81.35,75.84Z"></path><path d="M82.12,64.22A2,2,0,0,0,80.33,62c-2.67-.27-8,.74-8.93,6.49a2,2,0,0,0,1.7,2.27c1.71.25,1.81-1,2.37-2.15A4.19,4.19,0,0,1,79.94,66,2,2,0,0,0,82.12,64.22Z"></path><path d="M83.47,90.78a8,8,0,0,0,9.88-4.94,2,2,0,0,0-3.79-1.29c-1.1,3.21-4.4,2.54-5.05,2.37a2,2,0,0,0-1,3.86Z"></path><path d="M36.54,82.57c-3,1.62-5-1.1-5.33-1.67A2,2,0,0,0,27.84,83a8,8,0,0,0,10.62,3,2,2,0,1,0-1.91-3.51Z"></path><path d="M14.5,83.34a2,2,0,0,0,2,3.46c2.94-1.7,5,1,5.37,1.53a2,2,0,0,0,3.32-2.23C23.71,83.88,19.55,80.42,14.5,83.34Z"></path><path d="M70.93,87.92c-.4.11-3.9,1-5-2.38a2,2,0,1,0-3.79,1.29A8,8,0,0,0,72,91.78a2,2,0,1,0-1-3.86Z"></path><path d="M94.12,74.22A2,2,0,0,0,92.33,72c-2.67-.27-8,.74-8.93,6.49A2,2,0,0,0,85,80.83l.33,0a2,2,0,0,0,2-1.67c.56-3.35,3.92-3.23,4.6-3.17A2,2,0,0,0,94.12,74.22Z"></path><path d="M102.9,86.56a2.13,2.13,0,0,0-.34,3.89c1.47.69,3.21-.93,4.17-1.87,2.1-2.05,3.88-4.36,3.26-7.42a2,2,0,0,0-3.92.79C106.73,85.28,103.55,86.37,102.9,86.56Z"></path><path d="M6.05,92.5a2,2,0,0,0,2.13-1.86c.77-11.31,8-12.78,20-15.2l3.57-.73a2,2,0,0,0,1.35-1,35.67,35.67,0,0,1,4.54-6.62l-3.07-2.59A39.69,39.69,0,0,0,30.08,71l-2.63.54C15.49,73.93,5.17,76,4.19,90.36A2,2,0,0,0,6.05,92.5Z"></path><path d="M58.12,55.22a37.49,37.49,0,0,1,7.32-.72A36.17,36.17,0,0,1,98.08,74.4a2,2,0,0,0,1.2,1c1.95.6,3.78,1.1,5.56,1.59,9.48,2.59,14.7,4,15.35,13.63a2,2,0,0,0,2,1.86h.14a2,2,0,0,0,1.86-2.13c-.85-12.45-8.93-14.66-18.29-17.22-1.5-.41-3-.83-4.63-1.31A40.16,40.16,0,0,0,65.44,50.5a41.19,41.19,0,0,0-14.32,2.57l.86.85A17.74,17.74,0,0,1,58.12,55.22Z"></path><path d="M43.06,66.37c0,3.81,2.07,8,5.58,11.09a17.61,17.61,0,0,0,6,3.56,4.66,4.66,0,0,0,.9,3.23c0-.55,3.26-2,3.16-2.35-.45-1.55,1.67-2.43,2.69-3A4.17,4.17,0,0,0,63.55,75a7,7,0,0,1,1.06-3.68c.74-1.07,2.25-2.08,1.55-3.57a17.76,17.76,0,0,0-4.24-5.57C58.44,59.1,54.12,57.54,50.4,58l-27-26.89a2,2,0,0,0-2.82,0l-7.27,7.27a2,2,0,0,0-.59,1.49,2,2,0,0,0,.71,1.45Z"></path><path d="M110.18,57.68A2,2,0,1,0,113.42,60c.11-.15,10.36-14.78-6.5-31.64-4.8-4.8-6.94-9.24-6.37-13.19.73-5.05,5.8-7.87,5.9-7.93a2,2,0,0,0-1.89-3.53c-.28.15-6.91,3.76-8,10.84-.79,5.28,1.73,10.88,7.49,16.64C118.46,45.59,110.51,57.2,110.18,57.68Z"></path><path d="M91.34,32c11.06,9.29,6.23,17.94,6,18.3a2,2,0,1,0,3.43,2.05c.07-.12,6.87-11.87-6.89-23.42-3.28-2.75-5.06-5.84-5.29-9.19-.41-5.8,3.9-10.67,3.94-10.72a2,2,0,0,0-3-2.68c-.22.25-5.48,6.14-5,13.65C84.94,24.51,87.19,28.55,91.34,32Z"></path></svg>