<?xml version="1.0" encoding="UTF-8" standalone="no"?>
<svg
   xmlns:dc="http://purl.org/dc/elements/1.1/"
   xmlns:cc="http://creativecommons.org/ns#"
   xmlns:rdf="http://www.w3.org/1999/02/22-rdf-syntax-ns#"
   xmlns:svg="http://www.w3.org/2000/svg"
   xmlns="http://www.w3.org/2000/svg"
   viewBox="0 0 793.70667 642.52002"
   height="642.52002"
   width="793.70667"
   xml:space="preserve"
   id="svg2"
   version="1.1"><metadata
     id="metadata8"><rdf:RDF><cc:Work
         rdf:about=""><dc:format>image/svg+xml</dc:format><dc:type
           rdf:resource="http://purl.org/dc/dcmitype/StillImage" /></cc:Work></rdf:RDF></metadata><defs
     id="defs6" /><g
     transform="matrix(1.3333333,0,0,-1.3333333,0,642.52)"
     id="g10"><g
       transform="scale(0.1)"
       id="g12"><path
         id="path14"
         style="fill:#000000;fill-opacity:1;fill-rule:nonzero;stroke:none"
         d="m 3303.29,3369.61 -83.47,109.53 -245.74,-172.94 118.41,-84.09 c 91.58,64.11 204.13,142.8 210.8,147.5" /><path
         id="path16"
         style="fill:#000000;fill-opacity:1;fill-rule:nonzero;stroke:none"
         d="m 2567.72,3006.2 c -55.82,-44.67 -17.72,-70.23 15.12,-114.76 32.84,-44.57 59.54,-6.47 146.65,60.02 73.2,55.89 168.51,130.96 223.95,172.42 l -117.91,83.76 c -94.56,-68.98 -223.83,-166.23 -267.81,-201.44" /><path
         id="path18"
         style="fill:#000000;fill-opacity:1;fill-rule:nonzero;stroke:none"
         d="m 2406.41,3498.99 c 5.98,8.47 17.72,10.54 26.2,4.59 l 0.25,-0.22 c 12.81,-9 148.63,-104.55 180.88,-127.31 l 84.73,111.12 c -22.44,15.84 -189.89,133.58 -200.91,141.36 -9.76,6.87 -8.99,18.18 -5.84,24.48 3.34,6.39 13.95,19.27 -2.9,31.16 -16.91,11.87 -88.25,63.26 -141.12,99.28 -52.83,36.03 -89.89,60.8 -101.68,67.99 -11.89,7.22 -15.54,11.63 -24.58,-1.33 l 0.52,0.87 c -1.81,-2.66 -10.08,-14.39 -10.08,-14.39 -3.06,-4.38 -1.67,-9.71 2.34,-13.46 4.42,-4.43 18.31,-16.63 31.64,-35.69 l 0.61,-0.87 c 14.39,-20.22 14.8,-49.36 -4.29,-64.05 0,0 -14.66,-11.17 -44.22,-34.82 -23.65,-18.94 -46.4,-35.79 -54.48,-41.7 l 238.5,-181.8 24.43,34.79" /><path
         id="path20"
         style="fill:#000000;fill-opacity:1;fill-rule:nonzero;stroke:none"
         d="m 1806.59,3406.35 c -7.04,-5.16 -11.3,-8.48 -13.56,-10.79 -6.88,-6.87 -9.41,-9.78 -1.01,-18.37 8.27,-8.61 86.33,-86.57 293.02,-191.81 206.6,-105.24 257.53,-130.71 367.2,-165.17 8.16,-1.83 7.31,-2.01 11.15,4.56 1.6,2.8 6.35,11.64 12.28,22.66 -112.11,35.27 -175.45,65.16 -375.63,167.15 -198.94,101.29 -280.3,178.6 -293.45,191.77" /><path
         id="path22"
         style="fill:#000000;fill-opacity:1;fill-rule:nonzero;stroke:none"
         d="m 2545.83,3215.26 c -2.88,46.25 -32.88,64.64 -73.15,96.92 -40.25,32.32 -104.61,84.24 -112.36,91.26 -7.78,6.95 -8.28,18.21 -2.75,26.07 3.71,5.24 10.28,14.63 17.41,24.49 l -136.52,104.1 -102.76,77.3 c 0,0 -180.3,-124.24 -246.66,-171.04 -34.76,-24.49 -57.48,-40.22 -72.3,-50.76 16.52,-16.18 97.54,-90.63 288.89,-188.08 199.9,-101.78 262.74,-131.43 374.46,-166.56 l 1.57,-0.47 c 6.78,12.63 14.29,26.34 20.1,36.59 l 28.05,53.64 c 11.27,21.61 17.53,42.55 16.36,62.79 l -0.34,3.75" /><path
         id="path24"
         style="fill:#000000;fill-opacity:1;fill-rule:nonzero;stroke:none"
         d="m 3359.93,3006.2 c -55.8,44.64 -248.86,189.15 -334.14,249.13 l -317.96,223.81 -83.53,-109.53 c 10.46,-7.35 278.64,-194.82 322.93,-226.04 45.19,-31.79 163.79,-125.63 250.92,-192.11 87.11,-66.49 113.78,-104.59 146.63,-60.02 32.81,44.53 71.02,70.09 15.15,114.76" /><path
         id="path26"
         style="fill:#000000;fill-opacity:1;fill-rule:nonzero;stroke:none"
         d="m 3430.06,3628.53 c -11.09,-7.78 -178.48,-125.52 -200.89,-141.36 l 84.74,-111.12 c 32.21,22.76 168,118.31 180.88,127.31 l 0.18,0.22 c 8.53,5.95 20.31,3.88 26.21,-4.59 l 24.51,-34.79 238.42,181.8 c -8.03,5.91 -30.81,22.76 -54.42,41.7 -29.54,23.65 -44.26,34.82 -44.26,34.82 -19.04,14.69 -18.64,43.83 -4.3,64.05 l 0.66,0.87 c 13.27,19.06 27.25,31.26 31.64,35.69 4,3.75 5.37,9.08 2.28,13.46 0,0 -8.24,11.73 -10.07,14.39 l 0.55,-0.87 c -9.06,12.96 -12.73,8.51 -24.59,1.33 -11.85,-7.19 -48.9,-31.96 -101.74,-67.99 -52.78,-36.02 -124.15,-87.41 -141.03,-99.28 -16.9,-11.89 -6.27,-24.77 -2.97,-31.16 3.15,-6.3 3.98,-17.61 -5.8,-24.48" /><path
         id="path28"
         style="fill:#000000;fill-opacity:1;fill-rule:nonzero;stroke:none"
         d="m 4134.58,3395.51 c -2.3,2.36 -6.52,5.68 -13.53,10.84 -13.2,-13.17 -94.58,-90.48 -293.44,-191.77 -200.25,-101.99 -263.56,-131.88 -375.67,-167.15 5.93,-11.02 10.69,-19.86 12.29,-22.66 3.86,-6.57 3.01,-6.39 11.17,-4.56 109.65,34.46 160.61,59.93 367.26,165.17 206.61,105.24 284.66,183.2 292.94,191.81 8.38,8.59 5.85,11.5 -1.02,18.32" /><path
         id="path30"
         style="fill:#000000;fill-opacity:1;fill-rule:nonzero;stroke:none"
         d="m 4110.91,3413.6 c -14.88,10.54 -37.57,26.27 -72.3,50.76 -66.36,46.8 -246.66,171.04 -246.66,171.04 L 3689.19,3558.1 3552.67,3454 c 7.12,-9.86 13.67,-19.25 17.41,-24.49 5.53,-7.86 5.03,-19.12 -2.76,-26.07 -7.77,-7.02 -72.16,-58.94 -112.38,-91.26 -40.25,-32.28 -70.29,-50.67 -73.12,-96.92 l -0.36,-3.75 c -1.23,-20.24 5.07,-41.18 16.37,-62.79 l 28,-53.64 c 5.87,-10.25 13.31,-23.96 20.13,-36.59 l 1.6,0.47 c 111.64,35.13 174.53,64.78 374.46,166.56 191.28,97.45 272.39,171.9 288.89,188.08" /><path
         id="path32"
         style="fill:#000000;fill-opacity:1;fill-rule:nonzero;stroke:none"
         d="m 1515.41,1078.1 c 22.71,3.55 43.85,-11.86 47.42,-34.59 3.55,-22.71 -11.87,-43.85 -34.58,-47.401 -22.72,-3.558 -43.87,11.851 -47.42,34.591 -3.55,22.7 11.87,43.84 34.58,47.4" /><path
         id="path34"
         style="fill:#000000;fill-opacity:1;fill-rule:nonzero;stroke:none"
         d="m 1859.14,1180.37 9.12,-77.1 15.43,1.81 c 14.69,1.74 22.91,9.24 20.51,29.35 l -2.91,24.74 c -2.11,17.93 -9.14,25.09 -23.13,23.44 z m 68.47,-210.108 c -2.93,6.179 -4.83,9.98 -7.25,30.398 l -4.64,39.47 c -2.77,23.31 -11.66,30.98 -29.59,28.87 l -13.63,-1.61 12.05,-102.23 -39.44,-4.648 -29.65,251.078 59.54,7.03 c 40.89,4.81 60.72,-12.12 65.27,-50.86 l 2.34,-19.73 c 3.05,-25.8 -3.24,-43.27 -19.84,-53.61 l 0.06,-0.73 c 20.71,-5.89 29.36,-23.81 32.47,-49.98 l 4.56,-38.73 c 1.44,-12.191 2.86,-21.128 7.93,-29.988 l -40.18,-4.73" /><path
         id="path36"
         style="fill:#000000;fill-opacity:1;fill-rule:nonzero;stroke:none"
         d="m 2112.58,1136.65 54.31,5.04 3.35,-35.94 -54.32,-5.04 6.86,-73.72 68.34,6.33 3.34,-35.941 -107.89,-10.027 -23.4,251.708 107.87,10.03 3.34,-35.98 -68.31,-6.33 6.51,-70.13" /><path
         id="path38"
         style="fill:#000000;fill-opacity:1;fill-rule:nonzero;stroke:none"
         d="m 2353.27,1266.09 c 38.56,2.62 59.97,-19.12 62.72,-59.47 l 0.54,-7.93 -37.5,-2.57 -0.73,10.46 c -1.21,18.01 -8.89,24.38 -21.5,23.53 -12.63,-0.87 -19.35,-8.2 -18.15,-26.22 1.27,-18.4 10.11,-31.55 37.63,-52.49 35.15,-26.95 47.03,-47.15 48.99,-75.99 2.75,-40.38 -15.87,-64.81 -54.81,-67.47 -38.95,-2.65 -60.68,19.07 -63.42,59.42 l -1.06,15.51 37.47,2.54 1.24,-18.01 c 1.24,-18.02 9.6,-23.97 22.2,-23.13 12.64,0.88 20.13,7.89 18.89,25.93 -1.24,18.37 -10.11,31.52 -37.61,52.49 -35.17,26.92 -47.02,47.13 -48.99,75.96 -2.74,40.38 15.5,64.81 54.09,67.44" /><path
         id="path40"
         style="fill:#000000;fill-opacity:1;fill-rule:nonzero;stroke:none"
         d="m 2531.13,1273.87 122.75,5.28 1.54,-36.09 -41.5,-1.78 9.38,-216.59 -39.71,-1.71 -9.38,216.57 -41.5,-1.77 -1.58,36.09" /><path
         id="path42"
         style="fill:#000000;fill-opacity:1;fill-rule:nonzero;stroke:none"
         d="m 2806.91,1110.54 38.28,0.72 -21.15,127.45 -0.73,-0.01 z m 92.1,-78.47 -40.07,-0.73 -7.7,45.7 -48.74,-0.89 -6.03,-45.99 -36.45,-0.65 35.75,253.46 58.15,1.08 45.09,-251.98" /><path
         id="path44"
         style="fill:#000000;fill-opacity:1;fill-rule:nonzero;stroke:none"
         d="m 3054.31,1284.91 -1.89,-195 c -0.17,-18.05 7.7,-24.63 20.34,-24.74 12.64,-0.14 20.65,6.28 20.82,24.34 l 1.9,195 37.55,-0.38 -1.86,-192.44 c -0.41,-40.46 -20.86,-63.38 -59.85,-62.99 -38.99,0.39 -59,23.69 -58.61,64.12 l 1.88,192.48 39.72,-0.39" /><path
         id="path46"
         style="fill:#000000;fill-opacity:1;fill-rule:nonzero;stroke:none"
         d="m 3302,1243.44 -3.04,-77.65 15.53,-0.59 c 14.8,-0.59 24.07,5.57 24.89,25.77 l 0.97,24.94 c 0.69,18.06 -5.12,26.23 -19.21,26.79 z m 34.87,-218.41 c -1.93,6.59 -3.21,10.64 -2.4,31.22 l 1.56,39.74 c 0.9,23.47 -6.69,32.44 -24.75,33.16 l -13.73,0.53 -4.03,-102.93 -39.74,1.55 9.9,252.81 59.96,-2.35 c 41.17,-1.59 58.12,-21.43 56.58,-60.43 l -0.76,-19.88 c -1.02,-26 -9.99,-42.28 -28,-49.91 l -0.04,-0.71 c 19.56,-9.09 25.31,-28.13 24.29,-54.49 l -1.53,-39.02 c -0.49,-12.27 -0.48,-21.32 3.11,-30.86 l -40.42,1.57" /><path
         id="path48"
         style="fill:#000000;fill-opacity:1;fill-rule:nonzero;stroke:none"
         d="m 3544.54,1094.24 38.19,-2.6 -10.11,128.86 -0.74,0.05 z m 85.06,-86.12 -40.02,2.68 -3.73,46.25 -48.66,3.3 -9.94,-45.32 -36.4,2.45 57.39,249.56 58.02,-3.92 23.34,-255" /><path
         id="path50"
         style="fill:#000000;fill-opacity:1;fill-rule:nonzero;stroke:none"
         d="m 3799.68,1177.64 -0.72,0.08 -17.09,-182.341 -35.57,3.332 23.55,251.719 49.62,-4.64 25.81,-154.41 0.74,-0.08 14.1,150.7 35.25,-3.3 -23.58,-251.731 -40.65,3.812 -31.46,186.859" /><path
         id="path52"
         style="fill:#000000;fill-opacity:1;fill-rule:nonzero;stroke:none"
         d="m 4018.02,1225.72 122.01,-14.49 -4.27,-35.88 -41.28,4.91 -25.54,-215.311 -39.48,4.68 25.57,215.311 -41.28,4.89 4.27,35.89" /><path
         id="path54"
         style="fill:#000000;fill-opacity:1;fill-rule:nonzero;stroke:none"
         d="m 4414.34,1073.54 c 21.44,-3.25 36.09,-23.17 32.84,-44.61 -3.25,-21.45 -23.17,-36.071 -44.61,-32.821 -21.45,3.25 -36.11,23.131 -32.82,44.581 3.25,21.44 23.13,36.1 44.59,32.85" /><path
         id="path56"
         style="fill:#000000;fill-opacity:1;fill-rule:nonzero;stroke:none"
         d="m 1558.62,2132.51 c -86.83,-13.02 -130.2,-20.06 -216.78,-35.23 3.97,25.42 5.98,38.12 10.07,63.53 -4.32,24.98 -6.48,37.48 -10.79,62.46 -9.49,5.56 -14.25,8.35 -23.77,13.88 -53.65,-9.39 -80.46,-14.28 -134,-24.49 -6.95,-8.55 -10.42,-12.83 -17.34,-21.4 15.37,-79.66 23.05,-119.5 38.42,-199.16 9.52,-5.9 14.27,-8.86 23.76,-14.8 94.6,18.03 142,26.39 236.94,41.82 39.12,-26.01 58.53,-39.13 97.07,-65.56 24.26,-158.91 36.39,-238.35 60.64,-397.26 -27.36,-36.49 -40.87,-54.79 -67.58,-91.5 -127.85,-20.79 -191.64,-32.43 -318.81,-58.22 -39.53,24.58 -59.44,36.74 -99.56,60.85 -13.55,63.47 -20.32,95.21 -33.87,158.69 -12.31,22.26 -18.49,33.39 -30.9,55.6 82.16,17.73 123.31,26.08 205.78,41.77 -3.8,-25.5 -5.67,-38.24 -9.35,-63.74 4.8,-24.89 7.2,-37.34 12,-62.24 9.06,-5.47 13.59,-8.23 22.61,-13.74 49.79,9.49 74.72,14.05 124.6,22.78 6.49,8.35 9.75,12.52 16.27,20.85 -13.81,79.95 -20.71,119.92 -34.52,199.87 -9.21,6.12 -13.83,9.18 -23.07,15.28 -92.02,-16.11 -137.95,-24.78 -229.63,-43.38 -41.22,24.75 -61.99,37.01 -103.81,61.26 -33.66,157.71 -50.49,236.56 -84.145,394.26 30.086,38.57 45.305,57.79 76.075,96.11 141.9,28.78 213.07,41.78 355.72,64.98 40.57,-25.27 60.71,-38 100.72,-63.71 9.94,-65.16 14.92,-97.74 24.87,-162.9 13.01,-22.64 19.49,-33.97 32.38,-56.66" /><path
         id="path58"
         style="fill:#000000;fill-opacity:1;fill-rule:nonzero;stroke:none"
         d="m 1729.48,1491.23 c 4.64,25.76 6.99,38.63 11.75,64.38 -38.41,277.51 -76.82,555.02 -115.22,832.53 -12.33,22.87 -18.52,34.3 -30.96,57.13 214.77,30.26 322.52,42.24 538.32,59.9 18.85,-69.69 28.16,-104.56 46.51,-174.34 -29.57,5.33 -44.38,7.92 -74.05,13 -108.82,-9.39 -163.19,-14.9 -271.76,-27.56 -7.47,-8.53 -11.2,-12.8 -18.64,-21.34 9.4,-79.06 14.1,-118.59 23.5,-197.64 9.05,-6.58 13.57,-9.88 22.58,-16.49 34.71,4.05 52.07,5.99 86.81,9.69 25.74,10.9 38.64,16.31 64.51,27.02 7.94,-80.23 11.91,-120.35 19.86,-200.57 -26.87,5.49 -40.33,8.18 -67.3,13.46 -34.11,-3.63 -51.16,-5.53 -85.24,-9.51 -7.17,-7.98 -10.75,-11.98 -17.88,-19.98 9.82,-82.58 14.73,-123.87 24.55,-206.44 8.68,-6.63 13.01,-9.95 21.65,-16.6 100.93,11.76 151.47,16.89 252.62,25.62 26.33,9.9 39.53,14.8 65.98,24.5 -6.3,-73.23 -9.33,-109.84 -15.13,-183.07 -193.4,-15.82 -289.98,-26.57 -482.46,-53.69" /><path
         id="path60"
         style="fill:#000000;fill-opacity:1;fill-rule:nonzero;stroke:none"
         d="m 2869.68,1648.69 c 23.76,-30.38 35.53,-45.6 58.86,-76.14 -92.85,0.43 -139.29,-0.01 -232.12,-2.18 5.22,16.87 7.84,25.3 13.13,42.15 -61.47,138.15 -93.42,206.96 -159.74,343.91 -32.55,-56.08 -48.56,-84.2 -80.01,-140.59 3.76,-76.46 5.64,-114.7 9.39,-191.17 9.44,-24.42 14.13,-36.64 23.45,-61.08 -80.04,-3.73 -120.05,-6.09 -200.01,-11.75 6.39,25.37 9.62,38.05 16.14,63.41 -19.08,279.08 -38.16,558.16 -57.25,837.25 -10.72,24.17 -16.12,36.25 -26.97,60.39 89.21,6.32 133.85,8.94 223.16,13.11 -7.95,-25.24 -11.89,-37.87 -19.71,-63.14 6.78,-137.75 10.16,-206.64 16.93,-344.39 91.53,156.29 139.45,233.88 239.5,387.65 -5.91,11.04 -8.87,16.55 -14.82,27.58 101.31,2.31 151.98,2.77 253.3,2.31 -27.46,-30.81 -41.08,-46.27 -68.09,-77.27 -87.13,-130.05 -129.16,-195.62 -210.1,-327.63 90.65,-191.88 133.65,-288.42 214.96,-482.42" /><path
         id="path62"
         style="fill:#000000;fill-opacity:1;fill-rule:nonzero;stroke:none"
         d="m 2997.84,1571.96 c 8.49,24.73 12.76,37.11 21.36,61.83 4.3,280.12 8.58,560.24 12.87,840.36 -8.67,24.49 -13.04,36.72 -21.84,61.19 216.29,-2.79 324.45,-7.33 540.32,-22.71 8.01,-71.75 11.9,-107.63 19.43,-179.38 -28.41,9.75 -42.65,14.58 -71.18,24.11 -108.91,7.27 -163.42,10.09 -272.46,14.11 -8.66,-7.3 -12.99,-10.95 -21.62,-18.27 -2.74,-79.56 -4.11,-119.35 -6.86,-198.91 7.93,-7.88 11.89,-11.83 19.77,-19.73 34.86,-1.28 52.28,-2.01 87.14,-3.63 27.06,6.86 40.61,10.24 67.79,16.89 -4.37,-80.5 -6.54,-120.76 -10.9,-201.26 -25.69,9.52 -38.57,14.23 -64.39,23.55 -34.22,1.59 -51.33,2.31 -85.56,3.57 -8.28,-6.8 -12.41,-10.21 -20.67,-17.03 -2.86,-83.11 -4.29,-124.66 -7.15,-207.78 7.55,-7.87 11.32,-11.81 18.82,-19.7 101.37,-3.73 152.04,-6.34 253.28,-13.11 27.5,5.79 41.28,8.62 68.89,14.18 -17.37,-71.42 -25.92,-107.14 -42.8,-178.63 -193.46,13.77 -290.39,17.85 -484.24,20.35" /><path
         id="path64"
         style="fill:#000000;fill-opacity:1;fill-rule:nonzero;stroke:none"
         d="m 3958.72,2032.78 c 8.95,6.05 13.42,9.08 22.39,15.11 11.85,95.62 17.78,143.43 29.63,239.05 -7.45,8.07 -11.18,12.11 -18.66,20.17 -54.49,6.63 -81.77,9.74 -136.34,15.54 -9.1,-6.17 -13.64,-9.26 -22.71,-15.46 -9.97,-95.83 -14.96,-143.74 -24.93,-239.57 7.39,-7.9 11.07,-11.85 18.41,-19.77 52.92,-5.63 79.37,-8.65 132.21,-15.07 z m -385.99,-488.14 c 10.14,23.6 15.24,35.38 25.49,58.95 23.66,279.16 47.3,558.32 70.94,837.48 -6.92,25.53 -10.42,38.28 -17.46,63.8 188.48,-15.5 282.59,-25.65 470.26,-50.76 32.01,-36.01 47.85,-54.08 79.22,-90.36 -24.98,-173.66 -37.46,-260.48 -62.43,-434.15 -38.75,-27.21 -57.97,-40.93 -96.12,-68.57 13.15,-123.01 19.22,-184.5 30.33,-307.48 6.56,-27.05 9.79,-40.59 16.19,-67.66 -79.45,11.56 -119.23,16.87 -198.87,26.51 8.45,22.97 12.69,34.47 21.21,57.44 -13.43,118.64 -20.64,177.97 -36.02,296.6 -4.59,6.65 -6.9,9.97 -11.52,16.61 -21.72,2.45 -32.58,3.64 -54.33,5.96 -8.75,-6.72 -13.13,-10.08 -21.85,-16.82 -11.81,-113.49 -17.71,-170.22 -29.53,-283.7 5.68,-25.07 8.48,-37.6 14.03,-62.68 -79.74,8.5 -119.65,12.27 -199.54,18.83" /><path
         id="path66"
         style="fill:#000000;fill-opacity:1;fill-rule:nonzero;stroke:none"
         d="m 4539.32,1469.79 c 2.3,-25.29 3.42,-37.93 5.61,-63.21 -77.85,15.79 -116.85,23.21 -194.98,37.12 12.33,22.53 18.53,33.78 30.98,56.27 19.56,108.29 29.33,162.43 48.89,270.71 -41.68,233.74 -65.19,350.62 -117.58,584.11 -16.33,31.3 -24.57,46.92 -41.23,78.15 105.52,-15.87 158.2,-24.56 263.35,-43.47 -12.82,-13.16 -19.21,-19.74 -31.95,-32.93 22.96,-147.75 33.51,-221.61 52.74,-369.3 72.18,130.26 109.17,195.08 184.9,324.01 -7,16.97 -10.53,25.44 -17.62,42.39 104.84,-21.1 157.13,-32.41 261.47,-56.55 -27.04,-22.89 -40.49,-34.38 -67.24,-57.47 -134.3,-197.92 -198.96,-298 -323.24,-500.12 -21.64,-107.88 -32.46,-161.83 -54.1,-269.71" /></g></g></svg>