<svg height='300px' width='300px'  fill="#000000" xmlns="http://www.w3.org/2000/svg" xmlns:xlink="http://www.w3.org/1999/xlink" version="1.1" x="0px" y="0px" viewBox="0 0 100 100" style="enable-background:new 0 0 100 100;" xml:space="preserve"><path d="M84.7,44.3l-3.1-17.1c-0.5-2.7-2.9-4.7-5.6-4.7H24.5c-2.8,0-5.1,2-5.6,4.7l-3.1,17.1h-0.2c-2.4,0-4.3,1.9-4.3,4.3v3  c0,2.4,1.9,4.3,4.3,4.3h0.2l3.2,17.4c0.5,2.7,2.9,4.7,5.6,4.7H76c2.8,0,5.1-2,5.6-4.7l3.2-17.4c2.2-0.1,4-2,4-4.2v-3  C88.8,46.2,87,44.4,84.7,44.3z M20.8,27.5c0.3-1.8,1.9-3.1,3.7-3.1H76c1.8,0,3.4,1.3,3.7,3.1l3.1,16.7h-65L20.8,27.5z M79.6,72.8  c-0.3,1.8-1.9,3.1-3.7,3.1h-2.2v-9.1c0-0.6-0.4-1-1-1s-1,0.4-1,1v9.1h-4.5v-9.1c0-0.6-0.4-1-1-1s-1,0.4-1,1v9.1h-4.5v-9.1  c0-0.6-0.4-1-1-1s-1,0.4-1,1v9.1h-4.5v-9.1c0-0.6-0.4-1-1-1s-1,0.4-1,1v9.1h-4.5v-9.1c0-0.6-0.4-1-1-1s-1,0.4-1,1v9.1h-4.5v-9.1  c0-0.6-0.4-1-1-1s-1,0.4-1,1v9.1h-4.5v-9.1c0-0.6-0.4-1-1-1s-1,0.4-1,1v9.1h-4.5v-9.1c0-0.6-0.4-1-1-1s-1,0.4-1,1v9.1h-1.8  c-1.8,0-3.4-1.3-3.7-3.1l-3.1-17h65.1L79.6,72.8z M86.8,51.5c0,1.2-1,2.3-2.3,2.3H15.4c-1.2,0-2.3-1-2.3-2.3v-3c0-1.2,1-2.3,2.3-2.3  h0.8c0,0,0,0,0.1,0c0.2,0,0.3,0,0.5,0h66.9c0.1,0,0.2,0,0.3,0c0.1,0,0.1,0,0.2,0c0,0,0,0,0.1,0h0.4c1.2,0,2.3,1,2.3,2.3V51.5z"></path><path d="M82.2,49H17.8c-0.6,0-1,0.4-1,1s0.4,1,1,1h64.5c0.6,0,1-0.4,1-1S82.8,49,82.2,49z"></path></svg>