<svg height='300px' width='300px'  fill="#000000" xmlns="http://www.w3.org/2000/svg" xmlns:xlink="http://www.w3.org/1999/xlink" xml:space="preserve" version="1.1" style="shape-rendering:geometricPrecision;text-rendering:geometricPrecision;image-rendering:optimizeQuality;" viewBox="0 0 296 232" x="0px" y="0px" fill-rule="evenodd" clip-rule="evenodd"><defs><style type="text/css">
   
    .fil1 {fill:#000000}
    .fil0 {fill:#000000;fill-rule:nonzero}
   
  </style></defs><g><path class="fil0" d="M107 172c-5,5 -13,5 -18,0 -5,-5 -5,-13 0,-18 33,-32 85,-32 118,0 5,5 5,13 0,18 -5,5 -13,5 -18,0 -23,-22 -59,-22 -82,0z"></path><path class="fil1" d="M148 193c11,0 20,9 20,20 0,11 -9,19 -20,19 -11,0 -20,-8 -20,-19 0,-11 9,-20 20,-20z"></path><path class="fil0" d="M64 125c-5,5 -13,5 -17,0 -5,-5 -5,-13 0,-18 55,-56 147,-56 202,0 5,5 5,13 0,18 -5,5 -13,5 -17,0 -46,-46 -122,-46 -168,0z"></path><path class="fil0" d="M22 77c-5,5 -13,5 -18,0 -5,-5 -5,-13 0,-18 79,-79 209,-79 288,0 5,5 5,13 0,18 -5,5 -13,5 -18,0 -69,-69 -183,-69 -252,0z"></path></g></svg>